<?xml version="1.0" encoding="UTF-8"?>
<!DOCTYPE svg PUBLIC "-//W3C//DTD SVG 1.1//EN" "http://www.w3.org/Graphics/SVG/1.1/DTD/svg11.dtd">
<svg xmlns="http://www.w3.org/2000/svg" version="1.1" width="1024px" height="1024px" style="shape-rendering:geometricPrecision; text-rendering:geometricPrecision; image-rendering:optimizeQuality; fill-rule:evenodd; clip-rule:evenodd" xmlns:xlink="http://www.w3.org/1999/xlink">
<g><path style="opacity:0.998" fill="#0077fe" d="M 607.5,-0.5 C 612.5,-0.5 617.5,-0.5 622.5,-0.5C 755.99,13.8164 889.657,27.8164 1023.5,41.5C 1023.5,42.8333 1023.5,44.1667 1023.5,45.5C 983.595,139.655 943.928,233.988 904.5,328.5C 807.688,315.669 710.855,303.002 614,290.5C 610.5,290.667 607,290.833 603.5,291C 469.536,312.665 335.536,334.332 201.5,356C 193.503,356.945 185.503,357.778 177.5,358.5C 118.526,267.54 59.1931,176.874 -0.5,86.5C -0.5,85.8333 -0.5,85.1667 -0.5,84.5C 202.311,56.317 404.978,27.9837 607.5,-0.5 Z"/></g>
<g><path style="opacity:1" fill="#00cb80" d="M 904.5,328.5 C 859.345,438.131 813.679,547.464 767.5,656.5C 716.505,650.634 665.338,644.967 614,639.5C 538.159,649.946 462.325,660.446 386.5,671C 385.244,671.417 384.577,672.25 384.5,673.5C 315.14,568.793 246.14,463.793 177.5,358.5C 185.503,357.778 193.503,356.945 201.5,356C 335.536,334.332 469.536,312.665 603.5,291C 607,290.833 610.5,290.667 614,290.5C 710.855,303.002 807.688,315.669 904.5,328.5 Z"/></g>
<g><path style="opacity:1" fill="#fdcb33" d="M 767.5,656.5 C 762.679,669.465 757.345,682.132 751.5,694.5C 749.707,696.426 748.707,698.759 748.5,701.5C 748.598,703.553 747.931,705.22 746.5,706.5C 744.707,708.426 743.707,710.759 743.5,713.5C 743.598,715.553 742.931,717.22 741.5,718.5C 739.707,720.426 738.707,722.759 738.5,725.5C 730.685,745.786 722.352,765.786 713.5,785.5C 711.707,787.426 710.707,789.759 710.5,792.5C 710.598,794.553 709.931,796.22 708.5,797.5C 706.707,799.426 705.707,801.759 705.5,804.5C 705.598,806.553 704.931,808.22 703.5,809.5C 701.707,811.426 700.707,813.759 700.5,816.5C 692.685,836.786 684.352,856.786 675.5,876.5C 673.707,878.426 672.707,880.759 672.5,883.5C 672.598,885.553 671.931,887.22 670.5,888.5C 668.707,890.426 667.707,892.759 667.5,895.5C 667.598,897.553 666.931,899.22 665.5,900.5C 663.707,902.426 662.707,904.759 662.5,907.5C 662.598,909.553 661.931,911.22 660.5,912.5C 658.707,914.426 657.707,916.759 657.5,919.5C 649.685,939.786 641.352,959.786 632.5,979.5C 630.707,981.426 629.707,983.759 629.5,986.5C 629.598,988.553 628.931,990.22 627.5,991.5C 625.707,993.426 624.707,995.759 624.5,998.5C 624.598,1000.55 623.931,1002.22 622.5,1003.5C 620.707,1005.43 619.707,1007.76 619.5,1010.5C 618.115,1014.94 616.448,1019.27 614.5,1023.5C 613.833,1023.5 613.167,1023.5 612.5,1023.5C 607.833,1015.83 603.167,1008.17 598.5,1000.5C 598.13,997.733 596.796,995.733 594.5,994.5C 589.114,987.108 584.114,979.442 579.5,971.5C 579.13,968.733 577.796,966.733 575.5,965.5C 563.672,948.517 552.339,931.183 541.5,913.5C 541.13,910.733 539.796,908.733 537.5,907.5C 507.339,862.517 477.672,817.183 448.5,771.5C 447.617,768.296 445.95,765.629 443.5,763.5C 439.007,757.852 435.007,751.852 431.5,745.5C 429.913,741.317 427.579,737.65 424.5,734.5C 420.007,728.852 416.007,722.852 412.5,716.5C 410.913,712.317 408.579,708.65 405.5,705.5C 401.425,701.024 398.092,696.024 395.5,690.5C 392.578,684.314 388.911,678.648 384.5,673.5C 384.577,672.25 385.244,671.417 386.5,671C 462.325,660.446 538.159,649.946 614,639.5C 665.338,644.967 716.505,650.634 767.5,656.5 Z"/></g>
<g><path style="opacity:0.678" fill="#6cbe6e" d="M 384.5,673.5 C 388.911,678.648 392.578,684.314 395.5,690.5C 391.089,685.352 387.422,679.686 384.5,673.5 Z"/></g>
<g><path style="opacity:0.749" fill="#7bc26c" d="M 751.5,694.5 C 751.293,697.241 750.293,699.574 748.5,701.5C 748.707,698.759 749.707,696.426 751.5,694.5 Z"/></g>
<g><path style="opacity:0.69" fill="#6fc472" d="M 405.5,705.5 C 408.579,708.65 410.913,712.317 412.5,716.5C 409.421,713.35 407.087,709.683 405.5,705.5 Z"/></g>
<g><path style="opacity:0.741" fill="#7ac16d" d="M 746.5,706.5 C 746.293,709.241 745.293,711.574 743.5,713.5C 743.707,710.759 744.707,708.426 746.5,706.5 Z"/></g>
<g><path style="opacity:0.733" fill="#79c56d" d="M 741.5,718.5 C 741.293,721.241 740.293,723.574 738.5,725.5C 738.707,722.759 739.707,720.426 741.5,718.5 Z"/></g>
<g><path style="opacity:0.698" fill="#71c372" d="M 424.5,734.5 C 427.579,737.65 429.913,741.317 431.5,745.5C 428.421,742.35 426.087,738.683 424.5,734.5 Z"/></g>
<g><path style="opacity:0.706" fill="#71c072" d="M 443.5,763.5 C 445.95,765.629 447.617,768.296 448.5,771.5C 446.05,769.371 444.383,766.704 443.5,763.5 Z"/></g>
<g><path style="opacity:0.753" fill="#7cc16d" d="M 713.5,785.5 C 713.293,788.241 712.293,790.574 710.5,792.5C 710.707,789.759 711.707,787.426 713.5,785.5 Z"/></g>
<g><path style="opacity:0.745" fill="#7ac16e" d="M 708.5,797.5 C 708.293,800.241 707.293,802.574 705.5,804.5C 705.707,801.759 706.707,799.426 708.5,797.5 Z"/></g>
<g><path style="opacity:0.737" fill="#7ac46e" d="M 703.5,809.5 C 703.293,812.241 702.293,814.574 700.5,816.5C 700.707,813.759 701.707,811.426 703.5,809.5 Z"/></g>
<g><path style="opacity:0.757" fill="#7bbf6d" d="M 675.5,876.5 C 675.293,879.241 674.293,881.574 672.5,883.5C 672.707,880.759 673.707,878.426 675.5,876.5 Z"/></g>
<g><path style="opacity:0.749" fill="#7ac16c" d="M 670.5,888.5 C 670.293,891.241 669.293,893.574 667.5,895.5C 667.707,892.759 668.707,890.426 670.5,888.5 Z"/></g>
<g><path style="opacity:0.741" fill="#78be6c" d="M 665.5,900.5 C 665.293,903.241 664.293,905.574 662.5,907.5C 662.707,904.759 663.707,902.426 665.5,900.5 Z"/></g>
<g><path style="opacity:0.459" fill="#84bf6e" d="M 537.5,907.5 C 539.796,908.733 541.13,910.733 541.5,913.5C 539.684,911.882 538.351,909.882 537.5,907.5 Z"/></g>
<g><path style="opacity:0.733" fill="#77c668" d="M 660.5,912.5 C 660.293,915.241 659.293,917.574 657.5,919.5C 657.707,916.759 658.707,914.426 660.5,912.5 Z"/></g>
<g><path style="opacity:0.486" fill="#8ac06d" d="M 575.5,965.5 C 577.796,966.733 579.13,968.733 579.5,971.5C 577.684,969.882 576.351,967.882 575.5,965.5 Z"/></g>
<g><path style="opacity:0.757" fill="#7bc071" d="M 632.5,979.5 C 632.293,982.241 631.293,984.574 629.5,986.5C 629.707,983.759 630.707,981.426 632.5,979.5 Z"/></g>
<g><path style="opacity:0.749" fill="#7bc372" d="M 627.5,991.5 C 627.293,994.241 626.293,996.574 624.5,998.5C 624.707,995.759 625.707,993.426 627.5,991.5 Z"/></g>
<g><path style="opacity:0.502" fill="#8cbf6d" d="M 594.5,994.5 C 596.796,995.733 598.13,997.733 598.5,1000.5C 596.684,998.882 595.351,996.882 594.5,994.5 Z"/></g>
<g><path style="opacity:0.741" fill="#7bc278" d="M 622.5,1003.5 C 622.293,1006.24 621.293,1008.57 619.5,1010.5C 619.707,1007.76 620.707,1005.43 622.5,1003.5 Z"/></g>
</svg>
